<svg xmlns="http://www.w3.org/2000/svg" viewBox="0 0 144 144"><defs><style>.cls-1{fill:#00c8e0;}.cls-2{fill:#fff;}</style></defs><title>subject</title><g id="Layer_2" data-name="Layer 2"><circle class="cls-1" cx="72" cy="72" r="72"/><path class="cls-2" d="M94.15,116.69H49.85a7,7,0,0,1-6-10.46L63.23,70.88V57.11a5.19,5.19,0,0,1,0-10.37H78.74a5.19,5.19,0,0,1,0,10.37V70.84l21.41,35.36,0,0a7,7,0,0,1-6,10.46ZM63.26,49.74a2.19,2.19,0,0,0,0,4.37h1.47a1.5,1.5,0,0,1,1.5,1.5V71.26A1.49,1.49,0,0,1,66,72L46.42,107.7a4,4,0,0,0,3.42,6H94.15a4,4,0,0,0,3.45-5.94L76,72a1.5,1.5,0,0,1-.22-.78V55.61a1.5,1.5,0,0,1,1.5-1.5h1.47a2.19,2.19,0,0,0,0-4.37Z"/><polygon class="cls-2" points="58.63 94.31 50.63 109.31 92.63 109.31 83.63 94.31 58.63 94.31"/><circle class="cls-2" cx="74.13" cy="38.81" r="2.5"/><circle class="cls-2" cx="85.63" cy="32.31" r="5"/></g></svg>