<svg xmlns="http://www.w3.org/2000/svg" viewBox="0 0 144 144"><defs><style>.cls-1{fill:#862893;}.cls-2{fill:#fff;}</style></defs><title>subject</title><g id="Layer_2" data-name="Layer 2"><circle class="cls-1" cx="72" cy="72" r="72"/><path class="cls-2" d="M80.84,111.39a12.64,12.64,0,0,1-5-1.47,11,11,0,0,0-4.2-1.3,13.19,13.19,0,0,0-4.24,1c-2.51.9-5.35,1.91-8.14.21C47.64,102.8,39.83,88.2,39.83,73.54v-.2c0-4.79,0-10.75,3.11-15.16C46.37,53.31,53.87,51,59.66,53a38.34,38.34,0,0,1,4.55,2c3.08,1.52,5.74,2.83,9.14,2.22A30.44,30.44,0,0,0,80,54.88c4.1-1.78,8.35-3.63,13.21-2.25,11,3.11,11,16.51,11,20.91,0,14.47-8.62,30.06-20.49,37.07A5.46,5.46,0,0,1,80.84,111.39Zm-9.21-5.76a13.53,13.53,0,0,1,5.43,1.56c2.29,1,3.77,1.62,5.09.84,11-6.51,19-21,19-34.49,0-10.6-2.8-16.32-8.82-18-3.84-1.08-7.41.47-11.2,2.12a33.11,33.11,0,0,1-7.27,2.51c-4.38.78-7.74-.88-11-2.49a36.08,36.08,0,0,0-4.2-1.85c-4.54-1.56-10.63.32-13.3,4.1-2.56,3.63-2.56,8.84-2.56,13.43v.2c0,13.65,7.23,27.22,18,33.77,1.49.91,3.09.41,5.58-.48A15.57,15.57,0,0,1,71.63,105.63Z"/><path class="cls-2" d="M72.43,66.7a21,21,0,0,1-10-2.84A1.5,1.5,0,0,1,64,61.31h0c.09.05,8.7,5.21,15.07.11A1.5,1.5,0,1,1,81,63.76,13.34,13.34,0,0,1,72.43,66.7Z"/><path class="cls-2" d="M72,66.68a1.5,1.5,0,0,1-1.49-1.34c-.09-.88-2.13-21.75,10-32.36a1.5,1.5,0,0,1,2,2.26c-11,9.58-9,29.59-9,29.79a1.5,1.5,0,0,1-1.34,1.65Z"/><path class="cls-2" d="M65.35,44.56c5.58,6.81,6.2,15.52,6.2,15.52s-8.43-2.31-14-9.12-6.2-15.52-6.2-15.52S59.77,37.75,65.35,44.56Z"/></g></svg>