<svg xmlns="http://www.w3.org/2000/svg" viewBox="0 0 144 144"><defs><style>.cls-1{fill:#ff6b00;}.cls-2{fill:#fff;}</style></defs><title>subject</title><g id="Layer_2" data-name="Layer 2"><circle class="cls-1" cx="72" cy="72" r="72"/><path class="cls-2" d="M76.29,91v.81a20.56,20.56,0,0,1-5.42-3.87,21.88,21.88,0,0,1-4.78-7.44,24.21,24.21,0,0,1-1.68-8.9A23.7,23.7,0,0,1,67.7,59.3a19.05,19.05,0,0,1,8.59-8v.91a12.42,12.42,0,0,0-4.35,4,18.83,18.83,0,0,0-2.54,6.51A39.35,39.35,0,0,0,68.56,71a46.33,46.33,0,0,0,.71,8.47,22.62,22.62,0,0,0,1.36,4.82,15.56,15.56,0,0,0,2.14,3.49A16.91,16.91,0,0,0,76.29,91Z"/><path class="cls-2" d="M102.12,52.26v-.91a20.09,20.09,0,0,1,5.45,3.85,22.3,22.3,0,0,1,4.76,7.45A24.17,24.17,0,0,1,114,71.56a23.76,23.76,0,0,1-3.28,12.31,19,19,0,0,1-8.6,8V91A12.75,12.75,0,0,0,106.48,87,18.44,18.44,0,0,0,109,80.45a40,40,0,0,0,.83-8.24,46.56,46.56,0,0,0-.71-8.47,21.29,21.29,0,0,0-1.35-4.81,16.22,16.22,0,0,0-2.14-3.48A16.48,16.48,0,0,0,102.12,52.26Z"/><path class="cls-2" d="M52.9,63.12l-.39,1.44H49.37L47,74.06a57.11,57.11,0,0,1-3.16,9.73q-2.26,4.85-4.86,6.7a6.78,6.78,0,0,1-4,1.41,3.24,3.24,0,0,1-2.2-.78,1.74,1.74,0,0,1-.67-1.41,1.6,1.6,0,0,1,.55-1.21A1.9,1.9,0,0,1,34,88a1.38,1.38,0,0,1,1,.37,1.13,1.13,0,0,1,.4.85,1.21,1.21,0,0,1-.45.89q-.34.3-.34.46a.35.35,0,0,0,.15.3,1,1,0,0,0,.6.15,3.92,3.92,0,0,0,1.95-.59,5.63,5.63,0,0,0,1.82-1.75,13.39,13.39,0,0,0,1.51-3.36q.3-.91,1.61-6L46,64.55H42.27l.3-1.44a8.5,8.5,0,0,0,2.5-.25,3,3,0,0,0,1.3-1,14.45,14.45,0,0,0,1.54-2.64,21.51,21.51,0,0,1,2.43-4,11.8,11.8,0,0,1,3.35-2.91,6.88,6.88,0,0,1,3.3-1,3.93,3.93,0,0,1,2.63.84,2.39,2.39,0,0,1,1,1.82,1.8,1.8,0,0,1-.5,1.28,1.67,1.67,0,0,1-1.27.52,1.53,1.53,0,0,1-1.09-.39,1.24,1.24,0,0,1-.42-.94,1.89,1.89,0,0,1,.28-.86,1.94,1.94,0,0,0,.28-.69.55.55,0,0,0-.19-.46,1.32,1.32,0,0,0-.82-.22,3.77,3.77,0,0,0-2.43.87,9.85,9.85,0,0,0-2.58,3.61q-.58,1.28-2.13,6.38Z"/><path class="cls-2" d="M88.11,62.59a9.09,9.09,0,0,1,1.59,2.26A30.32,30.32,0,0,1,91,69l1.89-2.87a12,12,0,0,1,1.83-2,7.49,7.49,0,0,1,1.89-1.29,2.91,2.91,0,0,1,1.14-.22,2.1,2.1,0,0,1,1.47.5,1.59,1.59,0,0,1,.55,1.22,1.54,1.54,0,0,1-.32,1.13,2,2,0,0,1-1.38.54,2.74,2.74,0,0,1-1-.2,5.36,5.36,0,0,0-1.36-.35,2.05,2.05,0,0,0-1.23.61,17.24,17.24,0,0,0-3.19,4.37l1.76,7.49A6.75,6.75,0,0,0,93.78,80a.76.76,0,0,0,.56.34,1.77,1.77,0,0,0,1.05-.5,8.52,8.52,0,0,0,2-2.61l.75.39a13.59,13.59,0,0,1-3.44,4.27,3.48,3.48,0,0,1-2,1,2.14,2.14,0,0,1-1.92-1.37,53.81,53.81,0,0,1-1.87-7.31q-3.36,5.9-5.38,7.59A4,4,0,0,1,81,82.81a2.31,2.31,0,0,1-1.57-.63,1.67,1.67,0,0,1-.52-1.28,1.63,1.63,0,0,1,.47-1.2,1.57,1.57,0,0,1,1.16-.48,2.27,2.27,0,0,1,1.46.7,1.58,1.58,0,0,0,.86.5,1.17,1.17,0,0,0,.67-.35,16.47,16.47,0,0,0,2.76-3.57,35.27,35.27,0,0,0,2.28-4q-1.33-5.29-1.44-5.59a4.09,4.09,0,0,0-1.29-2,3.92,3.92,0,0,0-2.35-.59q-.5,0-1.14,0v-.78Z"/></g></svg>