<svg xmlns="http://www.w3.org/2000/svg" viewBox="0 0 144 144"><defs><style>.cls-1{fill:#6abb00;}.cls-2{fill:#fff;}</style></defs><title>subject</title><g id="Layer_2" data-name="Layer 2"><circle class="cls-1" cx="72" cy="72" r="72"/><path class="cls-2" d="M48.76,46.06a40.35,40.35,0,0,1,8.33.93c.44.09.6,0,.74-.44A36.67,36.67,0,0,1,63.15,36,16,16,0,0,1,67,32.24a8.55,8.55,0,0,1,10.21.11,19.5,19.5,0,0,1,5.44,6.26,40.35,40.35,0,0,1,3.56,8c.14.42.27.54.74.44a39.83,39.83,0,0,1,9.69-.87,17.91,17.91,0,0,1,7.57,1.76,8.55,8.55,0,0,1,4.76,8.94,21.07,21.07,0,0,1-3.22,8.57,41.19,41.19,0,0,1-4.73,6.3c-.25.28-.21.42,0,.68a37.29,37.29,0,0,1,6.45,9.72,15.81,15.81,0,0,1,1.44,5.9,8.54,8.54,0,0,1-5.55,8.48,19,19,0,0,1-6.91,1.4A39.28,39.28,0,0,1,86.83,97c-.4-.08-.52,0-.65.4A37,37,0,0,1,80.88,108a16.53,16.53,0,0,1-3.44,3.47,8.66,8.66,0,0,1-11-.13A20.62,20.62,0,0,1,61.16,105a41.05,41.05,0,0,1-3.37-7.72c-.13-.4-.32-.43-.67-.36a39.37,39.37,0,0,1-9.88.88,17.29,17.29,0,0,1-7.68-1.9,8.53,8.53,0,0,1-4.5-8.81,21.36,21.36,0,0,1,3.35-8.77,41.56,41.56,0,0,1,4.52-6c.25-.28.29-.43,0-.74a38.19,38.19,0,0,1-6.22-9.16A16.53,16.53,0,0,1,35,55.89a8.59,8.59,0,0,1,5.78-8.52A20.55,20.55,0,0,1,48.76,46.06ZM86.56,72c0-2.55-.14-5.1-.37-7.64a1,1,0,0,0-.45-.76,78.49,78.49,0,0,0-13.37-7.76.8.8,0,0,0-.74,0,78.31,78.31,0,0,0-13.33,7.65,1.07,1.07,0,0,0-.5.87c-.12,1.52-.24,3-.31,4.56a79.88,79.88,0,0,0,.31,10.63,1.14,1.14,0,0,0,.51.92,79.88,79.88,0,0,0,13.14,7.61,1.08,1.08,0,0,0,1,0,79.2,79.2,0,0,0,13.28-7.64,1,1,0,0,0,.46-.8C86.42,77.12,86.56,74.57,86.56,72ZM91,51c-1.14,0-2.05.07-3,.15-.35,0-.43.1-.34.46a74.62,74.62,0,0,1,1.73,9.92.89.89,0,0,0,.4.68,78.9,78.9,0,0,1,7.4,6.2c.58.55.59.56,1-.11a20.41,20.41,0,0,0,3.61-7.87,7.09,7.09,0,0,0-4.52-8.34A16.67,16.67,0,0,0,91,51ZM42,58.77c0,.22,0,.44,0,.65s.07.62.12.92A20.75,20.75,0,0,0,46,68.68c.14.2.23.17.39,0a75.44,75.44,0,0,1,7.9-6.61.65.65,0,0,0,.28-.5,73.79,73.79,0,0,1,1.76-10c.08-.32,0-.44-.33-.47A34.61,34.61,0,0,0,52.27,51a16.23,16.23,0,0,0-5.6,1.08A6.92,6.92,0,0,0,42,58.77ZM72,38.43a7.74,7.74,0,0,0-5,2.06,20.82,20.82,0,0,0-5.11,7.38c-.14.3.06.3.23.35a77.29,77.29,0,0,1,9.62,3.53.54.54,0,0,0,.48,0,77,77,0,0,1,9.72-3.53c.24-.07.31-.15.18-.39-.26-.51-.49-1-.75-1.55a18.79,18.79,0,0,0-4.32-5.8A7.84,7.84,0,0,0,72,38.43ZM53.51,93c.66,0,1.58-.12,2.49-.16.36,0,.44-.11.35-.47a75.3,75.3,0,0,1-1.73-9.91.66.66,0,0,0-.27-.51,78.89,78.89,0,0,1-7.86-6.6c-.17-.16-.28-.3-.49,0a22.73,22.73,0,0,0-3.57,7,9,9,0,0,0-.18,4.79,7,7,0,0,0,4.43,4.77A18,18,0,0,0,53.51,93ZM72,105.57a8.5,8.5,0,0,0,6-2.95,22.87,22.87,0,0,0,4.13-6.4c.17-.36,0-.37-.27-.44a75.57,75.57,0,0,1-9.45-3.46.93.93,0,0,0-.83,0,74,74,0,0,1-9.37,3.39c-.3.09-.4.18-.25.5a29.27,29.27,0,0,0,2.33,4.19,14.46,14.46,0,0,0,3.59,3.76A7.33,7.33,0,0,0,72,105.57ZM90.77,93a17.33,17.33,0,0,0,5.7-.79,7.24,7.24,0,0,0,5.21-9,21.23,21.23,0,0,0-3.76-7.85c-.18-.25-.28-.13-.42,0a78.26,78.26,0,0,1-7.81,6.51.66.66,0,0,0-.29.5,74,74,0,0,1-1.77,10c-.07.28,0,.42.3.44C88.87,93,89.82,93,90.77,93ZM76.32,90.09l2,.69c1.58.52,3.18,1,4.81,1.32.21,0,.44.18.55-.19a56.85,56.85,0,0,0,1.73-7.08A100.94,100.94,0,0,1,76.32,90.09ZM54.16,66.78l-.23.15a58.8,58.8,0,0,0-5,4.8c-.22.24-.11.35,0,.53a54.47,54.47,0,0,0,4.83,4.66c.1.08.17.22.36.2C54,73.7,54,70.28,54.16,66.78ZM67.64,53.93l-2.18-.74q-2.31-.75-4.67-1.28c-.2,0-.41-.15-.51.19a56,56,0,0,0-1.72,7.06A101.12,101.12,0,0,1,67.64,53.93Zm17.82,5.29a56.93,56.93,0,0,0-1.72-7.07c-.07-.23-.16-.27-.4-.22-1.55.34-3.08.75-4.59,1.23l-2.38.78A100.29,100.29,0,0,1,85.46,59.22Zm4.38,18,.21-.14a58.69,58.69,0,0,0,5-4.77c.23-.25.09-.36-.06-.53-.92-1-1.89-2-2.88-2.93-.71-.67-1.44-1.3-2.26-2C90,70.35,90,73.75,89.84,77.22ZM58.68,84.93a.15.15,0,0,0-.07.19,56.46,56.46,0,0,0,1.64,6.7c.09.3.25.28.48.23,1.78-.39,3.53-.88,5.26-1.45l1.56-.54A99,99,0,0,1,58.68,84.93Z"/><path class="cls-2" d="M72,81.5a9.51,9.51,0,1,1,9.52-9.44A9.48,9.48,0,0,1,72,81.5Z"/></g></svg>