<svg xmlns="http://www.w3.org/2000/svg" viewBox="0 0 144 144"><defs><style>.cls-1{fill:#5f5f60;}.cls-2{fill:#fff;}</style></defs><title>subject</title><g id="Layer_2" data-name="Layer 2"><circle class="cls-1" cx="72" cy="72" r="72"/><path class="cls-2" d="M107.84,78H75.16a2.66,2.66,0,0,0-2.66,2.66V97.92a2.66,2.66,0,0,0,2.66,2.66H97.93c0,2-.44,5.15-2.81,6.33,0,0,6.32-2.11,7.82-6.33h4.9a2.66,2.66,0,0,0,2.66-2.66V80.61A2.66,2.66,0,0,0,107.84,78Z"/><path class="cls-2" d="M75.53,104.1a6.05,6.05,0,0,1-5.86-4.63c-.47,1-1,2-1.49,3h-.05a69.56,69.56,0,0,1-5.89-15H69.5V84.83H61.61a65.25,65.25,0,0,1-1.49-13.08H76.2c0,1.1-.06,2.21-.13,3.35H78.7c.07-1.14.12-2.25.14-3.35h9.89c0,1.16-.09,2.27-.2,3.35h2.62c.1-1.08.17-2.19.19-3.35h7.52a31.66,31.66,0,0,1-.25,3.35h2.64A34,34,0,0,0,72.58,37.48l-.34-.15,0,.1a34,34,0,1,0,3.42,66.67Zm-15.4-35a68.12,68.12,0,0,1,1.64-13.08H74.55a68,68,0,0,1,1.64,13.08Zm18.69,0a69.18,69.18,0,0,0-1.3-11.86q-.12-.62-.25-1.22h8.84a39.5,39.5,0,0,1,2.6,13.08ZM95,55.92a31.16,31.16,0,0,1,3.86,13.21H91.32a41.92,41.92,0,0,0-2.48-13.08H95Zm-1.53-2.48H87.77A34.31,34.31,0,0,0,79.3,42,31.56,31.56,0,0,1,93.43,53.44ZM71.87,40A29.55,29.55,0,0,1,84.94,53.44H76.66a67,67,0,0,0-5-13.44Zm-4.13-.3.84,0a62.9,62.9,0,0,1,5.32,13.7H62.42A63.08,63.08,0,0,1,67.74,39.72ZM59.65,53.44H51.36a29.38,29.38,0,0,1,13.3-13.53A66.88,66.88,0,0,0,59.65,53.44Zm-.87,3.83a69.16,69.16,0,0,0-1.3,11.86H47.6a39.5,39.5,0,0,1,2.6-13.08H59Q58.9,56.66,58.78,57.27Zm.15,27.55H50.14a35.63,35.63,0,0,1-2.57-13.08h9.89A68.44,68.44,0,0,0,58.93,84.83ZM58,41.19a34.26,34.26,0,0,0-9.45,12.25h-7A31.52,31.52,0,0,1,58,41.19ZM40,56.06h7.5A41.93,41.93,0,0,0,45,69.13h-8.8A31.16,31.16,0,0,1,40,56.06ZM36.13,71.75H45a38.06,38.06,0,0,0,2.42,13.08h-8.1A31.18,31.18,0,0,1,36.13,71.75Zm4.59,15.69h7.79A34.79,34.79,0,0,0,61.9,102,31.46,31.46,0,0,1,40.72,87.44Zm10.64,0h8.17a71.45,71.45,0,0,0,4.6,12.87A31.51,31.51,0,0,1,51.36,87.44Z"/></g></svg>